<svg id="Capa_1" enable-background="new 0 0 497 497" height="512" viewBox="0 0 497 497" width="512" xmlns="http://www.w3.org/2000/svg"><g><path d="m32.275 244.885v180.973c0 22.587 18.31 40.897 40.897 40.897h340.75c22.587 0 40.897-18.31 40.897-40.897v-180.973z" fill="#ffdebb"/><path d="m90.538 297.087c0-17.788 1.769-35.227 5.157-52.202h-63.42v180.973c0 22.587 18.31 40.897 40.897 40.897h76.77c-37.575-48.837-59.404-107.099-59.404-169.668z" fill="#ffca8a"/><path d="m16.99 227.277c0 20.539 10.742 39.583 28.32 50.208 17.413 10.525 39.226 10.525 56.639 0 17.413-10.525 39.226-10.525 56.639 0 17.413 10.525 39.226 10.525 56.639 0 17.413-10.525 39.226-10.525 56.639 0 17.413 10.525 39.226 10.525 56.639 0 17.413-10.525 39.226-10.525 56.639 0 17.413 10.525 39.226 10.525 56.639 0 17.578-10.625 28.32-29.668 28.32-50.208l-226.557-22.884z" fill="#ff6f7f"/><path d="m102.32 218.657-85.33 8.619c0 20.54 10.742 39.584 28.32 50.208 13.898 8.401 30.599 10.088 45.629 5.079 1.192-21.97 5.074-43.349 11.381-63.906z" fill="#fc5c70"/><path d="m485.325 185.675-270.924-145.032c-27.803-14.884-61.536-13.769-88.109 3.214-39.611 25.315-93.857 73.825-125.259 160.609-4.013 11.09 4.164 22.81 15.957 22.81h457.901c12.211 0 22.109-9.899 22.109-22.109 0-8.153-4.487-15.644-11.675-19.492z" fill="#ffca8a"/><g><g><path d="m283.212 113.797c-7.777-1.491-12.951-8.949-11.587-16.781.256-1.466 6.552-36.195 32.453-60.368 5.872-5.48 15.077-5.164 20.558.709s5.164 15.077-.709 20.559c-18.544 17.307-23.597 43.829-23.642 44.092-1.378 7.914-8.911 13.213-16.826 11.835-.082-.015-.165-.031-.247-.046z" fill="#fc5c70"/></g></g><circle cx="284.335" cy="112.352" fill="#ff6f7f" r="45.652"/><path d="m445.122 338.791h-403.15c-13.797 0-24.982 11.185-24.982 24.982v13.806c0 13.797 11.185 24.982 24.982 24.982h403.15c13.797 0 24.982-11.185 24.982-24.982v-13.806c0-13.797-11.185-24.982-24.982-24.982z" fill="#ff6f7f"/><path d="m233.321 50.771-18.921-10.128c-27.803-14.884-61.536-13.77-88.109 3.213-39.61 25.316-93.856 73.825-125.258 160.611-4.013 11.09 4.163 22.81 15.957 22.81h82.842c19.284-71.195 67.428-133.106 133.489-176.506z" fill="#ffbe73"/><path d="m93.819 338.791h-51.847c-13.797 0-24.982 11.185-24.982 24.982v13.806c0 13.797 11.185 24.982 24.982 24.982h70.233c-8.665-20.36-14.892-41.699-18.386-63.77z" fill="#fc5c70"/><g><g><path d="m152.12 196.533c-4.143 0-7.5-3.358-7.5-7.5v-17.402c0-4.142 3.357-7.5 7.5-7.5s7.5 3.358 7.5 7.5v17.402c0 4.142-3.358 7.5-7.5 7.5z" fill="#423e4f"/></g><g><path d="m333.245 196.533c-4.143 0-7.5-3.358-7.5-7.5v-17.402c0-4.142 3.357-7.5 7.5-7.5s7.5 3.358 7.5 7.5v17.402c0 4.142-3.358 7.5-7.5 7.5z" fill="#423e4f"/></g><g><path d="m242.682 206.892c-11.317 0-22.081-4.902-29.53-13.45-2.722-3.123-2.396-7.86.727-10.582 3.121-2.721 7.859-2.397 10.582.726 4.6 5.278 11.241 8.305 18.222 8.305s13.623-3.027 18.222-8.304c2.72-3.123 7.458-3.448 10.581-.727s3.449 7.459.728 10.582c-7.45 8.548-18.213 13.45-29.532 13.45z" fill="#423e4f"/></g></g></g></svg>