<svg id="Capa_1" enable-background="new 0 0 512 512" height="512" viewBox="0 0 512 512" width="512" xmlns="http://www.w3.org/2000/svg"><g><g><path d="m42.451 323.633c-25.768-97.006-24.074-174.093-20.473-212.916 1.444-15.575 14.473-27.504 30.114-27.504h59.689l31.99 244.134-77.91 32.21z" fill="#f9ed80"/><path d="m106.83 292.709c-25.769-97.006-24.074-174.092-20.474-212.916 1.444-15.575 14.473-27.504 30.114-27.504h59.689l31.99 244.135-77.91 32.21z" fill="#f9d888"/><path d="m470.615 323.633c25.769-97.006 24.074-174.092 20.474-212.916-1.444-15.575-14.473-27.504-30.114-27.504h-59.689l-31.99 244.134 77.91 32.21z" fill="#f9d888"/><path d="m406.236 292.709c25.769-97.006 24.074-174.092 20.474-212.916-1.444-15.575-14.473-27.504-30.114-27.504h-59.689l-31.99 244.135 77.91 32.21z" fill="#f9ed80"/><path d="m281.317 21.366h34.905c15.642 0 28.67 11.929 30.114 27.504 3.6 38.824 5.295 115.91-20.474 212.916l-23.409 35.924-45.921-32.21-40.281-124.244 40.281-95.107c.001-13.687 11.097-24.783 24.785-24.783z" fill="#f9d888"/><path d="m231.749 21.366h-34.905c-15.642 0-28.67 11.929-30.114 27.504-3.6 38.824-5.295 115.91 20.474 212.916l23.409 35.924 45.921-32.21v-219.35c-.001-13.688-11.097-24.784-24.785-24.784z" fill="#f9ed80"/><path d="m64.7 257.344c0-60.81 17.796-117.365 48.334-164.562l-1.254-9.569h-59.688c-15.642 0-28.67 11.929-30.114 27.504-3.6 38.824-5.295 115.91 20.474 212.916l23.409 35.924 14.358-5.936c-10.058-30.21-15.519-62.592-15.519-96.277z" fill="#f9d888"/><path d="m481.167 215.932c-54.058 28.203-134.87 46.113-225.167 46.113s-171.109-17.91-225.166-46.113c-11.199-5.843-24.439 3.118-23.26 15.694 4.467 47.66 19.755 141.398 72.062 215.797 19.015 27.046 49.951 43.21 83.013 43.21h186.705c33.062 0 63.997-16.164 83.013-43.21 52.306-74.399 67.595-168.137 72.062-215.797 1.176-12.576-12.064-21.537-23.262-15.694z" fill="#ff6f7f"/><g><g><g><ellipse cx="146.976" cy="385.013" fill="#fff" rx="40.228" ry="32.035"/></g><g><ellipse cx="365.024" cy="385.013" fill="#fff" rx="40.228" ry="32.035"/></g></g></g><path d="m64.7 257.344c0-8.76.391-17.426 1.114-25.995-12.607-4.702-24.322-9.856-34.981-15.417-11.199-5.843-24.439 3.118-23.26 15.694 4.467 47.66 19.755 141.398 72.062 215.797 19.015 27.046 49.951 43.21 83.013 43.21h11.776c-66.884-54.766-109.724-138.91-109.724-233.289z" fill="#fc5c70"/><path d="m144.449 52.289h-27.979c-15.642 0-28.67 11.929-30.114 27.504-1.526 16.452-2.7 39.797-1.596 68.595 13.785-35.95 34.195-68.5 59.689-96.099z" fill="#fccb88"/></g><g><path d="m177.92 354.176v-16.445c0-4.142-3.358-7.5-7.5-7.5s-7.5 3.358-7.5 7.5v16.445c0 4.142 3.358 7.5 7.5 7.5s7.5-3.358 7.5-7.5z"/><path d="m349.081 354.176v-16.445c0-4.142-3.358-7.5-7.5-7.5s-7.5 3.358-7.5 7.5v16.445c0 4.142 3.358 7.5 7.5 7.5s7.5-3.358 7.5-7.5z"/><path d="m256 371.465c10.814 0 21.099-4.684 28.217-12.851 2.722-3.123 2.397-7.86-.726-10.582s-7.86-2.397-10.582.726c-4.269 4.898-10.432 7.707-16.909 7.707-6.478 0-12.64-2.809-16.908-7.706-2.722-3.123-7.46-3.448-10.582-.727-3.123 2.722-3.448 7.459-.727 10.582 7.118 8.167 17.403 12.851 28.217 12.851z"/><path d="m85.768 443.112c-23.099-32.855-41.251-73.053-53.95-119.477-1.093-3.995-5.219-6.348-9.213-5.255-3.995 1.093-6.348 5.218-5.255 9.214 13.159 48.1 32.05 89.868 56.149 124.146 20.426 29.053 53.752 46.398 89.149 46.398h186.707c35.397 0 68.724-17.345 89.149-46.398 11.216-15.953 21.433-33.773 30.368-52.967 1.748-3.755.121-8.216-3.634-9.965s-8.217-.121-9.964 3.634c-8.562 18.392-18.332 35.44-29.039 50.67-17.62 25.062-46.36 40.024-76.878 40.024h-186.71c-30.519.001-59.258-14.962-76.879-40.024z"/><path d="m18.878 302.952c4.052-.858 6.642-4.839 5.784-8.891-4.413-20.84-7.65-42.081-9.624-63.134-.626-6.679 6.398-11.437 12.323-8.345 114.975 59.987 330.76 65.066 457.277 0 .195-.092.465-.249 1.092-.475 5.5-2.025 11.83 2.44 11.232 8.82-3.031 32.332-10.593 81.489-29.411 132.066-1.444 3.882.532 8.2 4.414 9.645.862.321 1.746.473 2.614.473 3.044 0 5.907-1.867 7.03-4.887 19.388-52.112 27.172-102.664 30.287-135.896.895-9.549-4.113-19.09-13.531-23.519 3.686-43.201 2.179-77.375.193-98.784-1.814-19.561-17.971-34.311-37.583-34.311h-27.266c-3.256-17.851-18.652-30.924-37.114-30.924h-43.261c-3.256-17.851-18.652-30.924-37.114-30.924h-34.905c-9.949 0-18.858 4.526-24.785 11.623-5.927-7.098-14.836-11.623-24.784-11.623h-34.906c-18.461 0-33.858 13.073-37.113 30.924h-43.261c-18.461 0-33.857 13.073-37.113 30.924h-27.263c-19.612 0-35.769 14.751-37.583 34.311-1.978 21.33-3.482 55.338.154 98.319-9.683 4.005-15.52 13.713-14.558 23.985 2.027 21.625 5.352 43.44 9.883 64.842.859 4.049 4.836 6.64 8.892 5.781zm464.746-191.545c1.923 20.737 3.385 53.827-.169 95.756-7.757 1.767-18.127 10.55-56.012 22.758 7.577-45.548 10.75-93.516 7.663-139.21h25.871c11.817 0 21.553 8.897 22.647 20.696zm-64.379-30.923c4.687 50.578.966 104.445-7.856 154.258-23.854 6.661-49.217 11.571-74.681 14.79 14.771-60.739 22.177-127.153 18.019-189.744h41.871c11.817-.001 21.553 8.897 22.647 20.696zm-137.927-51.621h34.905c11.817 0 21.553 8.898 22.647 20.697 6.034 65.113-1.759 137.037-18.078 201.779-19.021 1.902-38.454 2.934-56.759 3.155v-208.347c0-9.53 7.754-17.284 17.285-17.284zm-84.474 0h34.906c9.53 0 17.284 7.754 17.284 17.284v208.355c-17.754-.172-38.165-1.211-56.73-3.05-16.275-64.565-24.184-136.32-18.107-201.892 1.094-11.799 10.83-20.697 22.647-20.697zm-80.375 30.924h41.871c-4.134 62.225 3.172 128.905 18.053 189.887-27.547-3.45-50.418-8.088-74.661-14.614-8.881-49.885-12.601-103.968-7.911-154.576 1.096-11.799 10.832-20.697 22.648-20.697zm-87.026 51.62c1.094-11.798 10.831-20.696 22.647-20.696h25.871c-2.834 41.932-.635 89.366 7.722 139.579-37.505-11.966-49.13-20.924-56.049-22.85-3.583-42.063-2.118-75.253-.191-96.033z"/></g></g></svg>